<?xml version="1.0" standalone="no"?>
<!DOCTYPE svg PUBLIC "-//W3C//DTD SVG 20010904//EN"
 "http://www.w3.org/TR/2001/REC-SVG-20010904/DTD/svg10.dtd">
<svg version="1.0" xmlns="http://www.w3.org/2000/svg"
 width="512.000000pt" height="512.000000pt" viewBox="0 0 512.000000 512.000000"
 preserveAspectRatio="xMidYMid meet">
<metadata>
Created by potrace 1.14, written by Peter Selinger 2001-2017
</metadata>
<g transform="translate(0.000000,512.000000) scale(0.100000,-0.100000)"
fill="#000000" stroke="none">
<path d="M1878 4464 c-9 -20 -8 -27 10 -42 26 -23 17 -37 -30 -46 -21 -4 -38
-12 -38 -18 0 -6 -9 -8 -19 -5 -13 3 -18 1 -15 -8 3 -8 -4 -16 -18 -20 -13 -4
-25 -11 -28 -15 -9 -13 -53 -24 -46 -11 4 6 14 11 22 11 11 0 14 7 10 23 -3
12 -3 16 0 10 7 -15 34 -17 34 -3 0 6 -6 11 -12 11 -60 5 -80 6 -65 2 18 -5
24 -23 7 -23 -6 0 -17 -6 -24 -12 -12 -11 -12 -16 1 -30 15 -16 15 -18 0 -18
-10 0 -17 -4 -17 -9 0 -5 -15 -13 -32 -16 -18 -4 -35 -11 -38 -15 -9 -13 -50
-22 -50 -10 0 6 -15 10 -37 8 -22 -1 -38 3 -41 10 -2 7 -12 12 -23 12 -17 0
-18 -3 -7 -20 11 -17 11 -22 0 -29 -10 -6 -10 -10 3 -21 19 -16 20 -40 0 -40
-8 0 -15 -4 -15 -9 0 -5 -13 -12 -30 -16 -16 -4 -30 -10 -30 -15 0 -5 -13 -11
-30 -15 -16 -4 -30 -11 -30 -16 0 -5 -7 -9 -15 -9 -8 0 -15 -4 -15 -10 0 -5
-11 -10 -24 -10 -17 0 -24 -5 -24 -17 1 -10 -2 -28 -6 -40 -5 -14 -3 -23 3
-23 8 0 11 -420 11 -1420 0 -781 -3 -1420 -7 -1420 -5 0 -8 -24 -8 -52 0 -47
2 -53 23 -56 20 -3 22 1 22 36 0 23 -5 43 -12 45 -8 3 -6 6 5 6 9 1 18 -7 19
-16 2 -33 4 -38 11 -50 4 -6 3 -13 -3 -15 -5 -1 15 -4 45 -5 37 -1 53 2 49 9
-9 14 36 -1 54 -18 7 -8 20 -14 28 -14 8 0 14 -4 14 -10 0 -5 7 -10 15 -10 8
0 15 -4 15 -10 0 -5 11 -10 24 -10 14 0 28 -5 32 -12 5 -8 -2 -9 -27 -4 -19 3
-35 11 -37 16 -2 6 -15 10 -28 10 -19 0 -24 -5 -24 -25 0 -14 5 -25 11 -25 5
0 8 4 4 9 -3 5 -1 12 4 15 5 4 11 -4 13 -16 2 -19 10 -24 47 -26 54 -4 83 5
61 18 -9 6 -10 10 -3 10 6 0 14 -4 17 -9 3 -5 18 -12 33 -16 15 -3 30 -10 33
-13 8 -10 43 -32 63 -38 9 -4 17 -10 17 -15 0 -4 15 -11 33 -14 29 -6 33 -10
29 -31 -2 -14 0 -24 7 -24 6 0 11 6 11 14 0 9 7 12 20 9 11 -3 20 -9 20 -14 0
-5 7 -9 15 -9 8 0 15 -4 15 -10 0 -5 16 -12 35 -16 19 -3 36 -11 36 -18 1 -6
2 -17 3 -25 0 -8 7 -16 15 -19 9 -3 11 0 6 8 -6 10 -4 12 9 7 10 -4 275 -7
589 -8 315 0 566 -3 560 -6 -25 -10 -12 -20 23 -19 23 1 41 7 48 18 14 24 1
34 -19 14 -9 -9 -22 -13 -28 -9 -8 5 -6 9 6 11 9 2 17 8 17 13 0 5 7 9 15 9 8
0 15 4 15 9 0 5 8 11 18 15 18 6 54 27 62 37 3 4 16 10 30 14 14 4 27 11 30
16 3 4 19 10 35 14 23 5 26 4 15 -4 -9 -6 -10 -11 -3 -11 6 0 13 -10 16 -22 3
-22 4 -21 17 7 l13 30 6 -25 c8 -28 39 -39 53 -18 8 10 11 10 15 0 4 -10 8
-10 19 -1 11 9 14 9 14 0 0 -7 4 -9 10 -6 5 3 10 13 10 21 0 10 -13 14 -51 14
-43 0 -49 2 -40 14 15 17 -3 25 -45 20 -16 -2 -21 -1 -11 2 9 3 17 10 17 15 0
5 7 9 15 9 8 0 15 -5 15 -11 0 -5 5 -7 10 -4 6 4 8 11 5 16 -4 5 7 6 25 3 32
-7 44 11 13 19 -15 4 -15 6 5 12 12 4 22 11 22 16 0 5 7 9 15 9 8 0 15 5 15
10 0 6 7 10 16 10 14 0 14 -3 3 -16 -11 -13 -9 -14 14 -9 22 6 26 4 22 -8 -4
-10 0 -14 16 -13 35 2 34 25 -3 41 -18 8 -25 14 -15 15 9 0 17 5 17 10 0 6 7
10 15 10 8 0 15 4 15 9 0 5 14 12 30 16 17 4 30 10 30 15 0 4 11 11 25 14 14
4 25 11 25 16 0 6 4 10 10 10 5 0 7 -6 4 -13 -4 -11 5 -11 45 2 52 16 66 31
31 31 -11 0 -20 -4 -20 -10 0 -5 -9 -10 -20 -10 -31 0 -24 18 10 25 17 4 30
11 30 16 0 5 7 9 15 9 13 0 15 166 15 1430 l0 1430 -390 0 c-340 0 -390 2
-390 15 0 8 -3 15 -7 15 -5 0 -7 -641 -6 -1425 l3 -1425 -545 0 -545 0 0 1410
0 1410 -400 0 c-393 0 -400 0 -400 20 0 20 7 20 1340 20 1333 0 1340 0 1340
20 0 11 -7 20 -15 20 -8 0 -15 5 -15 10 0 6 -7 10 -16 10 -26 0 -9 25 19 28
21 3 27 9 27 28 0 20 -5 24 -30 24 -16 0 -30 -4 -30 -10 0 -5 -11 -10 -25 -10
-14 0 -25 -4 -25 -10 0 -5 11 -10 25 -10 14 0 25 -5 25 -11 0 -12 -51 -3 -60
10 -3 5 -12 11 -20 14 -12 4 -11 6 3 6 9 1 17 8 17 16 0 20 -14 19 -35 -1 -9
-9 -19 -13 -23 -9 -4 4 -2 10 5 12 19 7 3 33 -19 33 -17 0 -18 -3 -8 -15 10
-12 10 -15 -3 -15 -8 0 -17 7 -21 15 -3 8 -12 15 -21 15 -8 0 -15 4 -15 9 0 5
-8 12 -17 14 -14 4 -12 5 5 6 12 0 22 -3 22 -7 0 -5 7 -9 15 -9 8 0 15 9 15
20 0 16 3 17 15 7 10 -8 15 -9 15 -2 0 18 -34 31 -53 21 -13 -8 -17 -6 -17 6
0 21 -56 20 -64 -1 -4 -12 -2 -15 9 -10 8 3 15 1 15 -5 0 -13 -51 -3 -60 11
-3 5 -18 12 -33 15 -15 4 -27 11 -27 16 0 5 -7 9 -15 9 -8 0 -15 4 -15 9 0 5
-11 12 -25 15 -14 4 -23 11 -20 17 5 7 12 6 21 -2 17 -14 19 -12 28 19 5 16 3
22 -7 22 -9 0 -18 -6 -20 -12 -3 -8 -6 -6 -6 5 -1 13 -10 17 -36 17 -26 0 -33
-3 -29 -15 4 -8 1 -15 -5 -15 -6 0 -11 5 -11 10 0 6 -7 10 -15 10 -8 0 -15 4
-15 9 0 5 -8 12 -17 14 -17 4 -17 5 0 6 9 0 17 8 17 17 0 9 8 29 17 45 21 36
10 50 -17 19 -11 -13 -20 -18 -20 -12 0 7 -7 12 -15 12 -8 0 -15 5 -15 10 0
21 -20 9 -21 -12 0 -13 -3 -17 -6 -10 -2 6 -11 12 -18 12 -7 0 -15 6 -18 13
-2 6 -8 9 -12 5 -4 -4 -3 -14 3 -21 7 -8 9 -17 5 -20 -3 -4 10 -7 31 -7 21 0
43 -6 50 -13 10 -10 6 -13 -26 -13 -21 -1 -38 2 -38 6 0 4 -12 11 -27 15 -15
3 -31 12 -35 18 -5 9 -159 13 -595 14 -476 2 -589 5 -591 15 -1 8 -18 14 -43
14 -34 1 -42 -3 -51 -22z m76 -37 c-14 -5 -30 -4 -41 3 -16 10 -15 10 5 5 15
-4 24 -1 28 9 5 12 9 13 19 3 11 -10 9 -14 -11 -20z m1456 -92 c0 -8 -7 -15
-15 -15 -9 0 -12 6 -9 15 4 8 10 15 15 15 5 0 9 -7 9 -15z m-1897 -128 c8 -20
-4 -33 -38 -41 -24 -5 -26 -4 -12 4 9 6 17 20 17 30 0 23 25 27 33 7z m-193
-3148 c0 -5 7 -9 15 -9 9 0 12 -6 9 -15 -5 -12 -9 -12 -30 3 -31 23 -38 41
-13 35 10 -3 19 -9 19 -14z"/>
<path d="M1760 4470 c0 -5 5 -10 10 -10 6 0 10 5 10 10 0 6 -4 10 -10 10 -5 0
-10 -4 -10 -10z"/>
<path d="M3140 4470 c0 -5 9 -10 21 -10 11 0 17 5 14 10 -3 6 -13 10 -21 10
-8 0 -14 -4 -14 -10z"/>
<path d="M3330 4399 c0 -5 5 -7 10 -4 6 3 10 8 10 11 0 2 -4 4 -10 4 -5 0 -10
-5 -10 -11z"/>
<path d="M3495 4337 c-23 -26 -26 -37 -11 -37 9 0 16 7 16 15 0 8 9 15 20 15
11 0 20 5 20 10 0 14 -33 12 -45 -3z"/>
<path d="M3550 4304 c0 -14 4 -23 10 -19 6 3 10 15 10 26 0 10 -4 19 -10 19
-5 0 -10 -12 -10 -26z"/>
<path d="M3530 4260 c0 -5 5 -10 10 -10 6 0 10 5 10 10 0 6 -4 10 -10 10 -5 0
-10 -4 -10 -10z"/>
<path d="M1540 4240 c0 -5 5 -10 10 -10 6 0 10 5 10 10 0 6 -4 10 -10 10 -5 0
-10 -4 -10 -10z"/>
<path d="M3565 4240 c3 -5 8 -10 11 -10 2 0 4 5 4 10 0 6 -5 10 -11 10 -5 0
-7 -4 -4 -10z"/>
<path d="M3740 4241 c0 -14 28 -33 40 -26 7 4 5 11 -4 21 -16 16 -36 19 -36 5z"/>
<path d="M3740 4191 c0 -17 12 -41 21 -41 5 0 9 11 9 25 0 16 -6 25 -15 25 -8
0 -15 -4 -15 -9z"/>
<path d="M1200 4130 c0 -5 7 -10 15 -10 8 0 15 5 15 10 0 6 -7 10 -15 10 -8 0
-15 -4 -15 -10z"/>
<path d="M1278 4121 c-10 -10 -18 -26 -18 -36 0 -16 -2 -16 -19 3 -24 28 -39
28 -37 0 1 -18 7 -23 27 -23 27 0 79 41 79 63 0 17 -12 14 -32 -7z"/>
<path d="M1320 4110 c0 -5 5 -10 10 -10 6 0 10 5 10 10 0 6 -4 10 -10 10 -5 0
-10 -4 -10 -10z"/>
<path d="M2030 3980 c0 -5 5 -9 11 -7 20 4 28 -39 13 -68 -17 -32 -20 -235 -4
-235 6 0 10 42 10 105 0 103 5 126 40 168 13 17 13 20 -5 33 -22 16 -65 19
-65 4z"/>
<path d="M3190 3979 c0 -5 5 -7 10 -4 6 3 10 8 10 11 0 2 -4 4 -10 4 -5 0 -10
-5 -10 -11z"/>
<path d="M2090 3919 c0 -5 5 -7 10 -4 6 3 10 8 10 11 0 2 -4 4 -10 4 -5 0 -10
-5 -10 -11z"/>
<path d="M2040 3495 c0 -37 4 -65 10 -65 6 0 10 28 10 65 0 37 -4 65 -10 65
-6 0 -10 -28 -10 -65z"/>
<path d="M2040 3255 c0 -30 5 -55 10 -55 6 0 10 25 10 55 0 30 -4 55 -10 55
-5 0 -10 -25 -10 -55z"/>
<path d="M2040 2981 c0 -63 4 -112 10 -116 6 -4 10 35 10 109 0 71 -4 116 -10
116 -6 0 -10 -43 -10 -109z"/>
<path d="M2040 2685 c0 -37 4 -65 10 -65 6 0 10 28 10 65 0 37 -4 65 -10 65
-6 0 -10 -28 -10 -65z"/>
<path d="M2040 2160 c0 -73 4 -120 10 -120 6 0 10 47 10 120 0 73 -4 120 -10
120 -6 0 -10 -47 -10 -120z"/>
<path d="M2047 1923 c-11 -11 -8 -223 3 -223 6 0 10 45 10 115 0 63 -1 115 -3
115 -2 0 -7 -3 -10 -7z"/>
<path d="M2040 1358 c1 -80 5 -118 14 -131 9 -12 16 -14 21 -8 3 6 1 11 -4 11
-7 0 -11 42 -11 120 0 73 -4 120 -10 120 -6 0 -10 -44 -10 -112z"/>
<path d="M2090 1219 c0 -5 5 -7 10 -4 6 3 10 8 10 11 0 2 -4 4 -10 4 -5 0 -10
-5 -10 -11z"/>
<path d="M2040 1185 c0 -8 9 -15 20 -15 11 0 20 7 20 15 0 8 -9 15 -20 15 -11
0 -20 -7 -20 -15z"/>
<path d="M2090 1164 c0 -8 5 -12 10 -9 6 3 10 10 10 16 0 5 -4 9 -10 9 -5 0
-10 -7 -10 -16z"/>
<path d="M3880 1030 c0 -5 -7 -10 -15 -10 -9 0 -12 -6 -9 -15 9 -21 17 -18 31
10 6 14 7 25 2 25 -5 0 -9 -4 -9 -10z"/>
<path d="M3770 1000 c0 -5 5 -10 10 -10 6 0 10 5 10 10 0 6 -4 10 -10 10 -5 0
-10 -4 -10 -10z"/>
<path d="M3683 963 c-22 -8 -14 -23 12 -23 16 0 25 6 25 15 0 15 -14 18 -37 8z"/>
<path d="M3750 910 c0 -11 5 -20 10 -20 6 0 10 9 10 20 0 11 -4 20 -10 20 -5
0 -10 -9 -10 -20z"/>
<path d="M3550 864 c0 -14 4 -23 10 -19 6 3 10 15 10 26 0 10 -4 19 -10 19 -5
0 -10 -12 -10 -26z"/>
<path d="M1663 833 c21 -5 22 -22 2 -29 -8 -4 -15 -15 -15 -25 0 -14 7 -19 25
-19 14 0 25 5 25 10 0 6 7 10 15 10 8 0 15 -4 15 -10 0 -15 19 -12 37 5 20 21
14 26 -36 28 -32 1 -37 3 -24 11 16 9 16 10 -2 17 -11 4 -29 7 -40 7 -17 0
-17 -1 -2 -5z"/>
<path d="M3500 820 c0 -5 6 -10 14 -10 8 0 18 5 21 10 3 6 -3 10 -14 10 -12 0
-21 -4 -21 -10z"/>
<path d="M3318 753 c21 -8 13 -23 -13 -23 -14 0 -25 -4 -25 -10 0 -18 45 -11
57 9 10 16 9 20 -3 25 -9 3 -19 6 -22 5 -4 0 -1 -3 6 -6z"/>
<path d="M1870 690 c0 -5 7 -10 15 -10 8 0 15 -7 15 -15 0 -18 16 -20 23 -2 4
10 6 10 6 0 1 -18 21 -16 21 2 0 8 -9 15 -19 15 -11 0 -23 5 -26 10 -3 6 -13
10 -21 10 -8 0 -14 -4 -14 -10z"/>
<path d="M3220 689 c0 -5 5 -7 10 -4 6 3 10 8 10 11 0 2 -4 4 -10 4 -5 0 -10
-5 -10 -11z"/>
<path d="M3258 688 c-8 -21 2 -38 23 -38 21 0 25 20 7 38 -15 15 -25 15 -30 0z"/>
<path d="M1870 660 c0 -5 5 -10 10 -10 6 0 10 5 10 10 0 6 -4 10 -10 10 -5 0
-10 -4 -10 -10z"/>
<path d="M1990 660 c0 -5 9 -10 20 -10 11 0 20 5 20 10 0 6 -9 10 -20 10 -11
0 -20 -4 -20 -10z"/>
<path d="M2060 660 c0 -5 5 -10 10 -10 6 0 10 5 10 10 0 6 -4 10 -10 10 -5 0
-10 -4 -10 -10z"/>
<path d="M2090 660 c0 -5 5 -10 10 -10 6 0 10 5 10 10 0 6 -4 10 -10 10 -5 0
-10 -4 -10 -10z"/>
<path d="M3310 660 c0 -5 9 -10 20 -10 11 0 20 5 20 10 0 6 -9 10 -20 10 -11
0 -20 -4 -20 -10z"/>
</g>
</svg>
