<?xml version="1.0" standalone="no"?>
<!DOCTYPE svg PUBLIC "-//W3C//DTD SVG 20010904//EN"
 "http://www.w3.org/TR/2001/REC-SVG-20010904/DTD/svg10.dtd">
<svg version="1.0" xmlns="http://www.w3.org/2000/svg"
 width="512.000000pt" height="512.000000pt" viewBox="0 0 512.000000 512.000000"
 preserveAspectRatio="xMidYMid meet">
<metadata>
Created by potrace 1.14, written by Peter Selinger 2001-2017
</metadata>
<g transform="translate(0.000000,512.000000) scale(0.100000,-0.100000)"
fill="#000000" stroke="none">
<path d="M2000 4433 c-8 -3 -17 -9 -20 -12 -3 -3 -23 -15 -45 -26 -22 -11 -42
-22 -45 -25 -3 -3 -27 -17 -55 -31 -137 -70 -241 -125 -245 -129 -3 -3 -14
-10 -26 -17 -55 -30 -204 -109 -251 -132 -29 -14 -53 -29 -53 -33 0 -5 590 -8
1310 -8 721 0 1310 3 1310 8 0 4 -10 12 -23 18 -12 6 -60 31 -107 56 -47 25
-110 59 -140 74 -30 16 -57 31 -60 34 -3 3 -32 19 -65 36 -97 51 -196 104
-255 137 -30 17 -66 37 -80 44 -20 10 -140 13 -580 12 -305 0 -562 -3 -570 -6z"/>
<path d="M1254 3951 c-7 -8 -4 -2826 4 -2836 4 -5 32 -23 62 -39 30 -15 91
-47 135 -71 44 -23 105 -56 135 -71 30 -16 57 -32 58 -36 2 -5 10 -8 17 -8 8
0 20 -6 27 -12 7 -7 58 -36 114 -64 55 -28 126 -66 157 -83 l56 -31 558 0
c468 0 562 2 579 14 11 8 63 37 115 64 52 28 110 58 129 68 19 11 37 22 38 27
2 4 8 7 13 7 5 0 45 20 89 45 43 25 125 68 182 97 57 29 109 59 116 66 7 6 19
12 27 12 7 0 16 7 19 16 3 9 6 651 6 1427 l0 1412 -371 -2 c-203 -1 -374 -5
-380 -8 -5 -4 -9 -542 -9 -1416 l0 -1409 -560 0 -560 0 0 1415 0 1415 -376 2
c-207 2 -378 1 -380 -1z"/>
</g>
</svg>
